<?xml version="1.0" encoding="utf-8"?>
<!-- Generator: Adobe Illustrator 20.1.0, SVG Export Plug-In . SVG Version: 6.00 Build 0)  -->
<svg version="1.1" xmlns="http://www.w3.org/2000/svg" xmlns:xlink="http://www.w3.org/1999/xlink" x="0px" y="0px" width="2800px"
	 height="2800px" viewBox="0 0 2800 2800" style="enable-background:new 0 0 2800 2800;" xml:space="preserve">
<style type="text/css">
	.st0{fill:#F7C2D1;}
	.st1{fill:#F4AABB;}
	.st2{fill:#503B63;}
	.st3{fill:#82768D;}
	.st4{fill:#88371C;}
	.st5{fill:#FFFFFF;}
	.st6{fill:#EDEDED;}
	.st7{fill:#7A2E1A;}
	.st8{fill:#E89D4F;}
	.st9{fill:#218C73;}
	.st10{fill:#1B7B62;}
	.st11{fill:#F8AF5F;}
	.st12{fill:#47A8A9;}
	.st13{fill:#56BDBF;}
	.st14{fill:#EC6346;}
	.st15{fill:#EE7562;}
	.st16{fill:#9D9D9C;}
	.st17{fill:#F6F6F6;}
	.st18{fill:#DD553E;}
</style>
<g id="Background">
	<rect x="-68.5" y="-68.5" class="st0" width="2936.9" height="2936.9"/>
</g>
<g id="Objects">
	<path class="st1" d="M2473.6,1973.3c-7.1-13.6-21.5-20.2-35.1-25.7c-19.5-7.9-39.1-15.4-58.7-23.2c-40.2-15.8-80.4-31.7-120.6-47.5
		c-39.2-15.5-78.4-31.3-118.9-43.2c-38.9-11.4-78.8-17.8-119.1-21.5c-84.9-7.7-170.7-8.8-255.8-11.1c-172.3-4.7-344.8-5.2-517.1-1.6
		c-22.4,0.5-44.8,1-67.2,1.6c-1.5-1.3-3.6-2.1-6.3-1.9c-17.3,1.2-34.7,2.5-52,3.7c-0.6,0-1.1,0-1.7,0.1c-0.6,0-1.1,0.1-1.6,0.2
		c-66.9,4.7-133.8,9.5-200.7,14.2c-79.2,5.6-158.7,11.6-236.5,28.3c-130.6,28.1-262.8,94.3-329.2,215.9
		c-7.6,13.9-14.1,28.5-19.6,43.4c-5.3,14.5-10.9,30.4-11.4,46c-0.5,17.3,9.1,29.2,24.4,36.1c16.9,7.6,34.7,13.6,52.4,19
		c74.8,22.8,153.5,30.2,231.4,31.8c39.6,0.8,79.3,0.2,118.9-0.8c19.8-0.5,40-0.1,59.6-3.6c17.5-3.1,33-11.1,47.4-21.3
		c14.5-10.3,28-22.2,43.5-31c15.1-8.6,31.5-14.1,48.5-17.2c35.5-6.6,72.5-2.3,107.7,4.3c37.7,7.1,74.8,17.1,112.2,25.3
		c40.9,8.9,82.1,16.7,123.4,23.4c82.2,13.3,165.1,22.2,248.2,26.6c39,2.1,78.3,3.9,117.1-2.1c34.6-5.3,66.3-18.6,94.7-38.8
		c51.4-36.3,92.4-90.4,152.1-114c37.4-14.7,78.1-14.8,117.6-13.4c42.8,1.5,85.7,4,128.4,7.1c67.1,4.8,135.5,14.3,202.3,2
		c29.3-5.4,58.3-15.8,82.5-33.5C2456.8,2034.5,2489.5,2003.6,2473.6,1973.3z"/>
	<g>
		<path class="st2" d="M1855.3,1409.5c2.3-3.9-0.9-8.1-5.1-7.6c-35.4,3.9-70.5,9.8-105.2,17.6c28.1-25.5,63-42.4,92.6-66.3
			c29.9-24.1,54-54.9,72.6-88.4c19.1-34.3,32.9-71.2,44-108.8c5.7-19.3,10.7-38.8,15.3-58.4c2.2-9.5,4.4-18.9,6.5-28.4
			c2-9.1,5.2-18.9,5.6-28.2c0.4-9.2-4.9-18.9-15.5-16.6c-5.5,1.2-10.6,4.6-15.5,7.2c-5.6,2.9-11.1,5.7-16.7,8.6
			c-14.7,7.6-29.3,15.1-44,22.7c22.4-23.9,44.7-47.9,67.1-71.8c13.7-14.7,27.9-29.1,40.9-44.4c11.8-13.8,22.3-29.3,27.5-46.9
			c5.1-17.5,5.1-35.8,3.9-53.8c-1.3-18.9-3.4-37.8-6-56.6c-5.3-37.4-13-74.5-23.2-110.9c-11.6-41.4-26.2-81.9-43.8-121.1
			c-1.1-2.5-4.3-3.4-6.7-2.3c-55.5,24.6-107.9,55.9-155.9,92.9c-12,9.3-23.8,19-35.2,29c-10.8,9.4-22.1,18.9-31.4,29.9
			c-8.8,10.4-12.5,21.9-11.8,35.5c0.7,14,3.2,28.2,5.5,42c4.3,26,10.1,51.8,17.1,77.2c-22.4-24.2-44.8-48.4-67.1-72.6
			c-1.7-1.8-5.2-2.5-7.1-0.4c-37,42.3-63.5,93.1-77.5,147.6c-14.4,56.1-14.9,114.3-2.3,170.8c7.1,31.9,17,63,24.6,94.7
			c-24.5-22.5-45.2-49-61.1-78.2c-2.2-4-7.5-3.3-9.2,0.6c-41.2,93.6-54.3,198.9-38.4,299.9c4.5,28.5,11.3,56.5,20.4,83.8
			c0.8,2.5,3,3.7,5.1,3.7c10.9,24.6,33.1,43.8,58.5,53c24.7,8.9,51.2,6.8,74.9-2.8c19.7-5,38.8-12.8,56.9-21.8
			c27.1-13.5,52.3-30.7,74.8-50.8C1815.9,1466,1837.9,1439.1,1855.3,1409.5z"/>
		<path class="st3" d="M1954.6,582.1c3.2-5.6-5.3-10.8-8.5-5.2c-33.3,58.7-63.1,119.3-90.3,181.1c-11.8,26.9-23.1,54-34,81.2
			c-0.4-0.7-0.8-1.3-1.2-1.9c-1.2-2.1-2.4-4.3-3.6-6.5c-2.5-4.6-4.9-9.3-7.1-14.1c-4.4-9.4-8.3-19-11.6-28.9
			c-6.5-19.4-10.9-39.4-13.2-59.7c-0.7-6.4-10.4-4-9.7,2.3c3.1,27.5,10.2,54.4,20.9,80c5.2,12.4,11.1,25.1,18.5,36.4
			c0.7,1.1,1.7,2.3,2.8,3.2c-12.6,32-24.7,64.1-36.4,96.4c-13,36-25.5,72.1-37.7,108.4c-31.6-49.8-48.8-107.9-48.9-166.9
			c0-6.4-10-6.8-10-0.3c0.1,62.3,18.5,123.9,52.7,176c0.7,1.1,1.6,1.7,2.6,2.1c-8.2,24.5-16.3,49.1-24.2,73.7
			c-3.2,10-6.4,19.9-9.7,29.9c-35.1-52.6-58.8-112.5-69.1-175c-3.3-19.7-5.1-39.6-5.6-59.5c-0.2-6.4-10.2-6.8-10-0.3
			c1.9,70.8,20.5,140.9,54.1,203.3c8.1,15,17,29.5,26.8,43.5c-16.4,50.8-32.6,101.6-49.2,152.4c-4.3,13.1-8.6,26.1-12.9,39.1
			c-41.9-48.8-69.3-109-79-172.6c-1-6.4-10.7-4-9.7,2.3c10.2,67.1,40.1,130.5,85,181.2c-8.4,25.2-17,50.3-25.7,75.3
			c-33.8-48.4-57.4-103.4-69.1-161.3c-1.3-6.3-11-4-9.7,2.3c12.3,60.8,37.5,118.8,73.8,169.1c0.3,0.5,0.7,0.8,1.1,1.1
			c-4.3,12.1-8.6,24.2-13,36.3c-2.2,1-3.3,4.1-2.4,6.6c-1.6,4.4-3.2,8.7-4.8,13.1c-2.9,7.9-5.9,15.8-8.9,23.7
			c-2.3,6,7.3,8.9,9.6,2.9c4.4-11.6,8.6-23.1,12.9-34.7c23.1,6.6,47.5-1.3,69-10.2c29.7-12.4,59.1-25.8,88.6-38.7
			c5.9-2.6,1-11.3-4.8-8.8c-28.1,12.3-56,24.7-84.2,36.8c-20.2,8.7-43.2,17.2-65.1,11.4c9.8-27,19.3-54.1,28.6-81.3
			c1.1,1.1,2.6,1.7,4.4,1.5c35.5-4.5,68.2-20.3,97.9-39.6c15.1-9.8,29.5-20.4,43.8-31.3c4.5-3.4,14.5-8.3,12.4-15.4
			c-1.8-6.1-10.3-5.4-12.1,0.3c-0.3,0.8-0.3,1.7-0.1,2.5c-1.4,1.1-2.8,2.1-4.2,3.2c-2.7,2.1-5.5,4.1-8.2,6.2
			c-5.9,4.4-11.9,8.8-17.9,13.1c-11.4,8.1-23.2,15.9-35.3,22.9c-24.2,14-50.1,24.6-77.9,28.3c6.5-19.2,13-38.4,19.4-57.7
			c4.9-14.9,9.8-29.9,14.7-44.8c0.4,0,0.9,0,1.4-0.1c70.7-14.6,130.6-57.2,188-98.7c5.1-3.7,0.4-12.5-4.8-8.8
			c-55.5,40.1-113.2,81.5-181,96.7c12.5-38.4,24.8-76.9,37.2-115.3c2.6,1.1,5.8-0.1,7-2.2c30,0.5,59.7-5.6,87.1-17.8
			c28.7-12.7,54.4-31.3,79-50.5c5.1-4-1.9-11.2-6.9-7.2c-23.5,18.3-48,35.8-75.2,48.2c-27.3,12.4-57,18.2-87,17.2
			c1.1-3.4,2.2-6.7,3.3-10.1c17.7-54.8,35.6-109.4,54.5-163.8c0.4,2,1.9,3.6,4.5,3.6c65.2-0.2,129.2-26.6,175.4-72.7
			c4.6-4.5-2.3-11.8-6.9-7.2c-44.3,44.1-105.6,69.7-168.2,69.9c-1.2,0-2.2,0.4-3,0.9c2.8-8,5.6-16,8.4-24
			c8.2-23.1,16.6-46.1,25.2-69.1c-0.2,2.6,1.3,5.3,4.6,5.2c57.4-1.9,112.9-24.4,155.5-62.9c4.8-4.3-2.1-11.5-6.9-7.2
			c-40.5,36.7-93.6,58.3-148.3,60.1c-1.7,0.1-3,0.8-3.9,2c13.7-36.4,28-72.5,43.1-108.4c49.1,9.8,92.7-19.9,123.3-55.4
			c4.2-4.8-2.7-12.1-6.9-7.2c-27.8,32.1-67.6,61.6-112.5,53.2c26.3-61.7,55.2-122.2,87.4-181
			C1946.3,596.8,1950.4,589.5,1954.6,582.1z"/>
	</g>
	<g>
		<path class="st4" d="M2140.5,1485.4c-4.4-11.2-8.7-22.4-13.1-33.6c-3.6-9.3-7-19-12.2-27.5c-11-17.7-28.1-22.3-46.3-26.2
			c-22-4.8-44-9.6-66-14.3c-44-9.6-135.9-23.3-180.2-30.5c-39.4-6.4-80.4-8.1-118.6,6.4c-33.8,12.9-62.1,37.2-77.7,72.8
			c-8.6,19.4-13.9,40.3-19.2,61c-5.9,22.9-11.4,45.8-16,69.1c-9.1,46.1-14.6,93.6-10.5,140.7c6.2,71.6,37.8,144.6,95.6,183.1
			c12.6,8.4,26.3,14.7,40.6,18.8c47.9,24.8,102.8,34.8,155.1,39.9c76.6,7.4,163.9,4.5,221.9-53.6
			C2219,1765.8,2149.2,1507.8,2140.5,1485.4z"/>
		<path class="st5" d="M2084.6,1469.4c-2.7-18.6-20.8-28.5-36.8-34.5c-22.7-8.4-46.4-15-69.8-21.1c-48.6-12.5-98.2-21.2-148.3-25.7
			c-25.4-2.3-50.9-3.5-76.4-3.7c-12.4-0.1-24.9,0.1-37.3,0.5c-7.7,0.3-18.6,1.1-20.7,10.4c-2.2,9.6,8.9,18.2,15.4,23.5
			c8.2,6.6,17.6,11.7,27.2,15.9c21.1,9.1,44,14.8,66.3,20.2c20.5,5,41.1,9.2,61.9,12.5c41.9,10.4,85.1,15.6,128.4,15.4
			c28.9-0.1,57.7-2.7,86.2-7.6C2083.4,1474.8,2085,1472,2084.6,1469.4z"/>
		<path class="st6" d="M2040.9,1472.2c-7.7-15.9-26.5-19.7-42.1-23.1c-22.6-4.8-45.1-9.7-67.7-14.5c-43.8-9.4-87.9-20.8-132.7-23.9
			c-24.7-1.7-49.6-0.2-73.6,6.2c-5.1,1.4-4.2,8.1-0.3,9.6c-0.5,1.9,0.1,3.9,2.4,5c18,8.1,37,13.6,56.2,18.3
			c20.2,5,40.4,9.7,60.8,14.2c40.4,8.9,81.3,16.4,122.7,18.4c23.4,1.1,46.8,0.4,70-2.6C2040.4,1479.2,2042.7,1475.9,2040.9,1472.2z"
			/>
		<path class="st7" d="M1624.2,1515.7c-7.1,8.2-12.9,17.1-17.3,27c-2.6,5.8,6,10.9,8.6,5c4.1-9.1,9.3-17.5,15.8-25
			C1635.5,1517.9,1628.4,1510.8,1624.2,1515.7z"/>
		<path class="st7" d="M1650,1588.8c-5.5,12.8-10.9,25.6-16.4,38.4c-2.5,5.9,6.1,11,8.6,5c5.5-12.8,10.9-25.6,16.4-38.4
			C1661.1,1588,1652.5,1582.9,1650,1588.8z"/>
		<path class="st7" d="M1589.4,1635.5c-2.9,7.6-5.7,15.3-8.6,22.9c-2.3,6,7.4,8.6,9.6,2.7c2.9-7.6,5.7-15.3,8.6-22.9
			C1601.3,1632.1,1591.6,1629.5,1589.4,1635.5z"/>
		<path class="st7" d="M1685.5,1752.6c-6.3,6.1-9.7,14.2-10.1,22.9c-0.3,6.4,9.7,6.4,10,0c0.3-6.2,2.8-11.6,7.2-15.9
			C1697.2,1755.2,1690.1,1748.1,1685.5,1752.6z"/>
		<path class="st7" d="M1742.6,1578c-6.4,10.4-11.8,21.4-16.2,32.9c-2.3,6,7.4,8.6,9.6,2.7c4.1-10.6,9.2-20.8,15.1-30.5
			C1754.7,1577.6,1746,1572.5,1742.6,1578z"/>
		<path class="st7" d="M1698.5,1493.3c-1.5,7.1-4.5,13.4-9.5,18.8c-4.4,4.7,2.7,11.8,7.1,7.1c6.1-6.6,10.3-14.4,12.1-23.2
			C1709.5,1489.6,1699.8,1487,1698.5,1493.3z"/>
		<path class="st7" d="M1647,1702.1c-3.3,8.3-6.6,16.6-9.9,24.9c-2.4,6,7.3,8.6,9.6,2.7c3.3-8.3,6.6-16.6,9.9-24.9
			C1659.1,1698.8,1649.4,1696.2,1647,1702.1z"/>
		<path class="st7" d="M1778.4,1684c-7.5,9.6-12.7,20.3-15.1,32.3c-1.3,6.3,8.4,9,9.6,2.7c2-10.1,6.1-19.7,12.5-27.9
			C1789.4,1686.1,1782.3,1678.9,1778.4,1684z"/>
		<path class="st7" d="M1833.8,1551.3c-2.2,7.6-4.4,15.3-6.7,22.9c-1.8,6.2,7.8,8.8,9.6,2.7c2.2-7.6,4.4-15.3,6.7-22.9
			C1845.2,1547.7,1835.6,1545.1,1833.8,1551.3z"/>
		<path class="st7" d="M1775.5,1496.3c-0.6,8-2.3,15.8-4.8,23.4c-2.1,6.1,7.6,8.7,9.6,2.7c2.9-8.5,4.5-17.1,5.2-26
			C1786,1489.9,1776,1489.9,1775.5,1496.3z"/>
		<path class="st7" d="M1834.6,1679c-0.5-6.4-10.5-6.4-10,0c0.7,9.6,0.3,19.1-1.4,28.5c-1.1,6.3,8.5,9,9.6,2.7
			C1834.6,1699.8,1835.3,1689.5,1834.6,1679z"/>
		<path class="st7" d="M1757.9,1831.8c-0.9,9.4-1.7,18.8-2.6,28.2c-0.6,6.4,9.4,6.4,10,0c0.9-9.4,1.7-18.8,2.6-28.2
			C1768.5,1825.4,1758.4,1825.4,1757.9,1831.8z"/>
		<path class="st7" d="M1708.8,1653.3c-4.1,8.2-8.2,16.4-12.3,24.6c-2.9,5.7,5.8,10.8,8.6,5c4.1-8.2,8.2-16.4,12.3-24.6
			C1720.3,1652.6,1711.7,1647.6,1708.8,1653.3z"/>
		<path class="st7" d="M1659.4,1830.1c-5.4,6.1-9.1,13.3-10.5,21.3c-1.1,6.3,8.5,9,9.6,2.7c1.1-6.4,3.7-12.1,8-16.9
			C1670.7,1832.4,1663.6,1825.3,1659.4,1830.1z"/>
		<path class="st7" d="M1845.7,1823.3c-0.9-6.3-10.6-3.6-9.6,2.7c1.8,12.6,1.6,25.4-0.6,37.9c-1.1,6.3,8.5,9,9.6,2.7
			C1847.6,1852.1,1847.8,1837.8,1845.7,1823.3z"/>
		<path class="st7" d="M1908,1742.7c-1-6.3-10.7-3.6-9.6,2.7c1.4,8.7,0.3,17.3-2.8,25.6c-2.3,6,7.4,8.6,9.6,2.7
			C1908.9,1763.5,1909.7,1753.2,1908,1742.7z"/>
		<path class="st7" d="M1934.6,1570.1c-0.6-6.4-10.6-6.4-10,0c0.8,9,0.6,17.9-0.9,26.8c-1.1,6.3,8.6,9,9.6,2.7
			C1935,1589.8,1935.5,1580,1934.6,1570.1z"/>
		<path class="st7" d="M1810.8,1765c-0.7,7.3-2,14.4-3.9,21.4c-1.7,6.2,8,8.9,9.6,2.7c2.1-7.9,3.5-15.9,4.2-24.1
			C1821.4,1758.6,1811.4,1758.7,1810.8,1765z"/>
		<path class="st7" d="M1917.7,1856.4v29.9c0,6.4,10,6.4,10,0v-29.9C1927.7,1849.9,1917.7,1849.9,1917.7,1856.4z"/>
		<path class="st7" d="M1847,1912.9c-1.6,8.7-2,17.3-1.2,26c0.6,6.3,10.6,6.4,10,0c-0.8-7.8-0.6-15.6,0.8-23.4
			C1857.8,1909.2,1848.2,1906.5,1847,1912.9z"/>
		<path class="st7" d="M2004.9,1770.7c-1.8-6.2-11.4-3.5-9.6,2.7c2.8,9.8,2.2,19.6-1.7,29.1c-2.4,6,7.2,8.6,9.6,2.7
			C2007.7,1794.1,2008.2,1782.1,2004.9,1770.7z"/>
		<path class="st7" d="M1996.1,1640.3c-0.4-6.4-10.4-6.4-10,0c0.8,11.3,0.5,22.6-1.2,33.8c-0.9,6.3,8.7,9,9.6,2.7
			C1996.3,1664.7,1996.9,1652.6,1996.1,1640.3z"/>
		<path class="st7" d="M1903.1,1646c-1.8-6.2-11.5-3.5-9.6,2.7c2.1,7,1.8,14.2-1.3,20.9c-2.7,5.8,5.9,10.9,8.6,5
			C1905,1665.4,1906,1655.7,1903.1,1646z"/>
		<path class="st7" d="M2020.9,1563c-0.7-9.4-1.4-18.7-2.2-28.1c-0.5-6.4-10.5-6.4-10,0c0.7,9.4,1.4,18.7,2.2,28.1
			C2011.4,1569.4,2021.4,1569.5,2020.9,1563z"/>
		<path class="st7" d="M2110.5,1584.4c-3.5-9.8-6.1-19.8-7.4-30.1c-0.8-6.3-10.8-6.4-10,0c1.5,11.2,4,22.1,7.8,32.8
			C2103.1,1593.1,2112.7,1590.5,2110.5,1584.4z"/>
		<path class="st7" d="M2071.1,1676l-9.8-37.1c-1.6-6.2-11.3-3.6-9.6,2.7c3.3,12.4,6.5,24.7,9.8,37.1
			C2063.1,1684.9,2072.8,1682.2,2071.1,1676z"/>
		<path class="st7" d="M2113,1731c-3-5.7-11.7-0.6-8.6,5c5.4,10.1,7.5,21.1,6.6,32.5c-0.5,6.4,9.5,6.4,10,0
			C2121.9,1755.4,2119.1,1742.6,2113,1731z"/>
		<path class="st7" d="M2075.1,1838.8l-2.1-40.4c-0.3-6.4-10.3-6.4-10,0l2.1,40.4C2065.4,1845.2,2075.4,1845.2,2075.1,1838.8z"/>
		<path class="st7" d="M1993.5,1883.1c-2,13.3-2.7,26.5-2,39.9c0.4,6.4,10.4,6.4,10,0c-0.7-12.5-0.2-24.9,1.6-37.3
			C2004.1,1879.5,1994.5,1876.8,1993.5,1883.1z"/>
		<path class="st7" d="M2058.9,1893.7c-0.9-6.3-10.5-3.6-9.6,2.7c1.5,11.2,2.1,22.5,1.9,33.8c-0.1,6.4,9.9,6.4,10,0
			C2061.4,1917.9,2060.6,1905.8,2058.9,1893.7z"/>
		<path class="st7" d="M2156,1596.4l-2.1-38.6c-0.3-6.4-10.3-6.4-10,0l2.1,38.6C2146.3,1602.8,2156.3,1602.9,2156,1596.4z"/>
		<path class="st7" d="M2157.9,1725c-2.1-10.5-4.2-20.9-6.3-31.4c-1.3-6.3-10.9-3.6-9.6,2.7c2.1,10.5,4.2,20.9,6.3,31.4
			C2149.5,1734,2159.2,1731.3,2157.9,1725z"/>
		<path class="st7" d="M1632.1,1423.6c-5.9,8.6-12.7,16.5-20.3,23.6c-4.7,4.4,2.4,11.5,7.1,7.1c8.2-7.7,15.5-16.3,21.9-25.6
			C1644.4,1423.3,1635.7,1418.3,1632.1,1423.6z"/>
		<path class="st8" d="M2084.4,1086.8c-41.9,98.1-77.2,199-105.2,302c-8,29.3-15.3,58.8-22.1,88.3c-1.4,6.3,8.2,8.9,9.6,2.7
			c23.8-103.6,54.7-205.5,92.6-304.7c10.7-28,21.9-55.7,33.7-83.2C2095.6,1086,2086.9,1080.9,2084.4,1086.8z"/>
		<path class="st9" d="M2230.1,1327.6c-47.1-50-87.9-105.9-121.1-166.1c-9.4-17-18.1-34.3-26.3-51.9c-1.2-2.6-5.3-3.5-7.6-2
			c-6,4-12.1,7.8-18.3,11.6c-30.4,12.3-59.9,27.2-89.6,41c-16.6,7.7-33.2,14.2-51,18.7c-16.7,4.2-33.6,7.4-50.3,11.6
			c-18.5,4.7-36.7,10.8-53.1,20.7c-2.6,1.6-3.5,5.7-1,7.9c11.3,10.2,26.3,13.2,39.9,19.2c6.2,2.7,12.2,5.9,17.8,9.8
			c10.4,12.1,16.6,27.7,16.4,44.2c-0.1,4.5,6.3,7.7,9.5,3.9c12-14.4,32.4-17.2,49.7-11.8c20.4,6.3,36,22.7,49.5,38.6
			c2,2.4,5.8,1.9,7.9,0c33.4-29.6,92.6-17.4,112.5,22.1c1.6,3.1,6.4,3.7,8.7,1.1c24.9-28,69.9-32.2,99.8-9.8
			C2228.5,1340.2,2234.2,1332,2230.1,1327.6z"/>
		<path class="st10" d="M2122.9,1335.9c-14.5-71.1-28.2-142.3-41.1-213.7c-0.4-2.1-1.7-3.2-3.3-3.5c0.5-1.9,1.1-3.9,1.6-5.8
			c1.4-5.1-4.7-7.9-8.4-4.9c-51.3,42.7-99.7,88.8-147.3,135.6c-13.6,13.4-27.2,26.8-40.7,40.2c-4.6,4.5,2.5,11.6,7.1,7.1
			c47.4-47,94.8-94,144.7-138.5c10.1-9,20.3-17.9,30.6-26.6c-19.3,65.1-49.8,126.2-80.2,186.8c-2.9,5.7,5.7,10.8,8.6,5
			c29.8-59.5,59.8-119.4,79.4-183.1c12.4,68.2,25.5,136.2,39.4,204.1C2114.6,1344.8,2124.2,1342.2,2122.9,1335.9z"/>
	</g>
	<g>
		<path class="st11" d="M1589.4,1429c-9.5-75.4-25.9-153.1-70.6-216.2c-38.8-54.8-96.7-95.4-165.1-99.4
			c-66.5-3.9-133.4,24.4-181,70.2c-51.1,49.1-80.8,117.3-93.2,186.3c-14.4,80.3-5.7,162.6,10.4,241.9c8,39.6,17.4,79.1,28.3,118
			c10.2,36.1,22.5,72,40.2,105.2c32.6,61.2,88.3,115.1,159.1,126.6c12.7,2.1,25.5,2.6,38.3,1.5c-0.5,3.6,3.3,7.7,7.4,5.2
			c31.3-18.6,67.4-25.3,101.3-37.4c31.8-11.4,59.8-28.5,80.6-55.5c41.1-53,50.2-124,54.4-189
			C1604.9,1600.6,1600.1,1514.2,1589.4,1429z"/>
		<path class="st12" d="M1460.1,976.6c-3.4-7.1-10.9-11.1-18.8-10.4c-9.2,0.8-16.9,7.4-23.2,13.5c-3.4,3.3-6.8,6.6-10.3,9.9
			c7.7-11.9,14.8-24.3,21.2-36.9c10.3-20.2,28-53.8,5-72.3c-1.5-1.2-4.2-1.1-5.6,0.2c-20.3,18.4-38.1,39-53.2,61.4
			c9.5-32.5,15.4-66.1,14.6-100c-0.3-12.6-1.4-25.1-3.7-37.5c-1.7-9.3-3.4-20.5-13-25.1c-8.2-4-16.9,0-22.9,5.7
			c-7.2,6.9-11.2,15.6-14,24.9c-4.3,14-7.7,28.3-10.1,42.7c-5.8-37.7-16.6-74.7-32-109.9c-6.1-13.8-12.8-27.2-20.3-40.3
			c-1.6-2.8-5.9-3.7-8-0.7c-26.4,38.9-25.7,86.6-17.3,131.1c-17.3-38.6-37.6-76-66.3-107.9c-1.7-1.9-4.5-2-6.5-0.6
			c-26.1,18.4-12.5,57.6-5.1,81.9c9.8,32.4,22.4,63.9,37.6,94.3c-20.2-21.1-43.3-39.5-68.8-54.4c-3.4-2-7.9,0.4-7.2,4.5
			c10.8,66.4,42.8,129.4,90.1,178.4c3.3,3.4,6.6,6.7,10,9.9c-18.6-9.9-37.2-19.8-55.9-29.8c-15.9-8.5-31.8-17.1-47.8-25.4
			c-8.4-4.4-23.6-8-27,4.2c-1.9,6.8,3.1,13.3,6.6,18.8c3.7,5.7,7.5,11.2,11.5,16.7c8.3,11.2,17.5,21.7,27.4,31.6
			c19.6,19.5,41.9,36.4,66.3,50c3.3,1.8,6.6,3.6,10,5.3c35.6,36.9,98.5,40.4,143.1,16.5c28.7-15.4,51.2-39.6,67.8-66.9
			c8.5-14,15.6-28.7,21.4-43.9C1460.4,1004.2,1466.2,989.2,1460.1,976.6z"/>
		<path class="st9" d="M1401.2,982.1c-8.6,10-15.2,21.1-19.8,33.2c-5.1-34.1-15-67.3-29.5-98.6c-4-8.7-7.9-20-15.8-25.9
			c-7-5.3-16.1-3-19.1,5.5c-1.6,4.5-1.7,9.7-2.3,14.5c-0.7,5.8-1.3,11.7-1.9,17.5c-1.2,12-2.3,24.1-3.2,36.1
			c-1.4,19.1-2.3,38.1-2.7,57.2c-10.5-24.8-21.6-49.3-33.2-73.5c-7.6-15.8-15.4-31.4-23.5-46.9c-5.6-10.7-14.5-26.4-29.1-22
			c-2.3,0.7-3.4,2.6-3.7,4.8c-6.4,52.6,0.2,106.4,19.2,155.9c2.3,5.9,12,3.4,9.6-2.7c-18.1-47.3-24.8-98.3-19.3-148.6
			c4.5,0.7,8,5.7,10.2,9.4c4,6.4,7.2,13.4,10.6,20.1c7.1,13.9,14,27.9,20.7,41.9c13.6,28.6,26.4,57.6,38.4,87c2,4.9,9.8,4.7,9.8-1.3
			c0.2-41.9,2.5-83.7,7.1-125.3c0.5-4.9,1.1-9.7,1.7-14.6c0.2-2,0.3-4.4,1.1-6.3c1.2-2.8,2.9-1.6,4.7,0.1c3.1,2.8,4.8,7.1,6.6,10.7
			c2.3,4.6,4.5,9.2,6.7,13.9c8,17.7,14.5,36.2,19.5,55c5.6,21.2,9.1,42.8,10.7,64.6c0.5,6.5,9.3,6.4,10,0
			c2.1-20.1,10.5-39.3,23.7-54.6C1412.4,984.3,1405.4,977.2,1401.2,982.1z"/>
		<path class="st9" d="M1317.4,845c-16.3,16.8-26.8,38.4-30.1,61.3c-12.8-26.2-25.7-52.4-38.5-78.6c-2.8-5.8-11.5-0.7-8.6,5
			c15.6,31.8,31.2,63.6,46.8,95.4c2.2,4.5,9.5,2.3,9.3-2.5c-0.9-27.3,9.3-53.9,28.3-73.5C1328.9,847.4,1321.8,840.3,1317.4,845z"/>
		<path class="st8" d="M1561.3,1343.1c-22-27.3-38.7-58.6-49.2-92c-1.3-5.8-2.9-11.5-4.8-17.2c-2.1-6-11.2-3.6-9.6,2.7
			c1.4,5.7,3,11.4,4.8,17c6.7,29.9,4.6,61.5-6.3,90.3c-16.5-34.5-33.1-69-49.6-103.5c-2.5-5.1-10.8-1.5-9.1,3.9
			c12.2,39.7,14.4,81.9,6.4,122.5c-23-33.8-38.5-72.2-45.5-112.6c-0.9-5.5-10.2-4.3-9.8,1.3c3.1,48.5-1.7,97.2-14.4,144.1
			c-5.2-4.8-8.4-11.5-10.9-18.3c-3.9-11-6.9-22.4-10.2-33.6c-7.3-24.6-14.6-49.1-21.9-73.7c-1.6-5.3-9.9-4.4-9.8,1.3
			c0.8,51.8-11.1,103.2-34.7,149.3c-15.9-8.3-16.6-33.9-18.1-49.3c-2.7-28.1-5.4-56.2-8.1-84.2c-0.6-5.8-7.7-6.6-9.8-1.3
			c-7.5,18.4-15,36.8-22.4,55.2c-3.7,9.2-7.5,18.4-11.2,27.6c-3.5,8.7-6.6,17.7-10.8,26c-4.4,8.7-19.6,28.9-28.5,12.7
			c-3.1-5.8-3.2-13-3.1-19.3c0.2-9.7,0.7-19.4,1-29.1c0.8-22.5,1.6-45.1,2.4-67.6c0.2-5.8-8.2-6.6-9.8-1.3
			c-12.4,39-38.6,72.9-73.3,94.8c-5.4,3.4-0.4,12.1,5,8.6c28.8-18.1,52-43.9,67.1-74.1c-0.5,13.5-1,27.1-1.4,40.6
			c-0.4,10.5-1.2,21-1,31.5c0.1,7.5,1,15.7,5.1,22.1c3.8,6,10.5,10.1,17.7,9.8c7.4-0.2,13.9-4.9,18.6-10.3
			c5.5-6.3,9.2-13.7,12.3-21.4c4.3-10.4,8.5-20.9,12.7-31.3c7.1-17.5,14.2-35,21.3-52.5c2.3,24.5,4.6,48.9,7.1,73.4
			c2,19.4,6.8,44,28.2,50.6c2,0.6,4.6-0.4,5.6-2.3c20.9-39.4,33.5-82.8,37-127.2c4.9,16.6,9.9,33.1,14.8,49.7
			c5.7,19.3,9.8,45.7,29.4,56.1c2.9,1.5,6.4,0.2,7.3-3c10.3-35.9,16.1-73,17.3-110.2c9.7,29.5,24.2,57.5,42.7,82.5
			c2.4,3.2,8,3.3,9.1-1.2c7.7-31.6,9.5-64.4,5.2-96.5c12,25,23.9,49.9,35.9,74.9c1.5,3.2,7.1,3.3,8.6,0c10-21.8,15.2-45.5,15.4-69.3
			c10.1,21.8,22.9,42.2,38.1,61C1558.2,1355.2,1565.3,1348.1,1561.3,1343.1z"/>
		<path class="st8" d="M1499.4,1202.7c-13.3,4.3-25.2-6.8-32.5-16.7c-7.5-10.1-14-20.7-24.5-28c-4.6-3.2-10.4,4.2-6.1,7.9
			c6.6,5.7,18.4,16.5,15.4,26.5c-3.3,10.8-16.6,6.2-23.3,2.1c-9.9-5.9-17.4-16-23.9-25.3c-4.2-5.9-8-12.2-11.4-18.6
			c-2-4.9-4.2-9.6-6.8-14.2c-3.2-5.8-11.1-0.7-8.6,5c1.9,4.6,4.1,9,6.4,13.4c3.9,9.8,6.6,20,7.7,30.5c0.8,7.5,0.9,15.2,0.2,22.7
			c-0.5,5.5-1.2,14.6-8.6,14.6c-5.7,0-11.2-4.8-14.8-8.6c-4.9-5.1-8.1-11.8-11.3-18c-7.2-14.3-12.3-29.6-15.6-45.3
			c-1.1-5.4-10.4-4.3-9.8,1.3c1.8,18.9,1.2,38-2.4,56.7c-1.7,8.9-4,17.8-6.9,26.4c-1.1,3.4-2.4,10-5.5,12.3c-3.6,2.5-8.2-1.6-10.8-4
			c-22.7-20.8-23.8-55.3-24.4-83.9c-0.1-6.5-9.5-6.4-10,0c-2.2,30.3-11.2,60.1-26.4,86.4c-3.7,6.5-15.3,27.2-22.7,13
			c-2.4-4.6-3.1-10.1-3.2-15.2c-0.2-8.1,0.3-16.3,0.4-24.5c0.3-19.4,0.7-38.8,1-58.3c0.1-5.7-8.3-6.8-9.8-1.3
			c-6.5,23.5-13.1,48.6-28.8,67.9c-13.9,17-36.3,29.5-58.7,24c-6.2-1.5-8.9,8.1-2.7,9.6c24.7,6.1,50-5.8,66.4-24.2
			c10.5-11.8,17.5-25.8,22.9-40.5c-0.1,8.3-0.3,16.6-0.4,24.8c-0.2,14-3,31.6,5,44.2c3.2,4.9,8.1,8.4,14.1,8.4
			c7.3,0.1,13-4.9,17.2-10.5c10-13.4,17.3-29.4,23.1-45c2.1-5.8,4-11.7,5.6-17.6c2.4,13.8,6.6,27.1,14.6,38.6
			c6.5,9.4,21,25.7,33.4,16c5.7-4.4,7.7-12.8,9.8-19.3c2.7-8.4,4.9-16.9,6.5-25.6c1.4-7.8,2.4-15.6,3-23.5c1.3,3.1,2.6,6.2,4,9.2
			c5.6,12,11.9,24.2,23.3,31.7c9.2,6.1,21.8,7,28.3-3.4c3.3-5.3,3.8-12.1,4.2-18.2c0.6-7.6,0.4-15.2-0.5-22.7
			c-0.1-0.7-0.2-1.4-0.3-2.2c0.5,0.7,1,1.3,1.5,2c8.4,10.5,18.2,20.8,31.6,24.5c11.1,3.1,23.6-1.2,26.9-12.9
			c1.2,1.5,2.4,2.9,3.7,4.3c9.4,10,23.2,17.5,37.1,13C1508.1,1210.3,1505.5,1200.7,1499.4,1202.7z"/>
		<path class="st8" d="M1592.7,1431.2c-9.7-19.8-19.4-39.6-29.1-59.4c-2.5-5-11.2-1.5-9.1,3.9c6.9,17.9,10.5,36.8,10.5,55.9
			c0,9-0.8,18-2.4,26.9c-0.9,4.7-1.9,9.3-3.2,13.8c-1.1,3.9-2.1,8.7-4.5,12.1c-6.2,8.8-16.3-6.6-19.7-11.2
			c-5.1-7-9.9-14.2-14.2-21.6c-9.4-16.1-16.8-33.2-22.2-51c-1.9-6.3-10.5-3.5-9.6,2.7c4.9,34.2,2.7,69.4-6.4,102.7
			c-1.5,5.6-3.4,12.2-7.9,16.2c-6,5.3-12.8,0.1-17.4-4.5c-10.9-10.6-20.1-23-27.6-36.3c-8.4-15-14.4-31.3-17.9-48.1
			c-1.1-5.5-10.2-4.3-9.8,1.3c2.2,30,5.3,66.9-14.2,92.4c-4,5.3-11.9,11.6-16.9,4.1c-4.7-7-7.4-16-10.6-23.8
			c-7-17.2-13.2-34.7-18.7-52.4c-1.9-6.2-10.7-3.6-9.6,2.7c3.4,19.4,3.5,39.4,0.1,58.7c-1.7,9.5-4.1,19-7.3,28.1
			c-2.2,6-6.2,15.3-14.1,14.1c-7.1-1-11.8-9.5-14.7-15.2c-4.3-8.7-7.7-18-10.9-27.1c-6.5-18.6-11.4-37.8-14.7-57.2
			c-0.9-5.6-10-4.3-9.8,1.3c0.7,17.6-0.3,35.2-3.4,52.5c-2.9,16.1-6.7,33.3-13.8,48.2c-2.6,5.5-6.3,12-12.1,14.6
			c-6.3,2.8-11.6-1.6-14.7-6.9c-3.8-6.5-5.8-14.2-7.9-21.3c-2.5-8.4-4.7-17-6.6-25.6c-4.3-19.6-6.9-39.4-7.9-59.4
			c-0.4-6.4-10.3-6.5-10,0c2.1,33.2-7.9,66.7-28.4,93c-3.9,5,3.1,12.1,7.1,7.1c12.4-15.8,21.4-33.9,26.6-53.1
			c0.8,4.5,1.6,8.9,2.6,13.3c2.2,10.2,4.8,20.2,7.8,30.2c2.3,7.7,4.6,16,9.2,22.8c8.9,13.1,24.9,14.2,35.4,2.3
			c5.3-6.1,8.6-13.3,11.3-20.9c3.4-9.3,6.2-18.9,8.5-28.6c2.2-9.6,3.9-19.4,5-29.2c1.5,5.2,3,10.3,4.7,15.4c2.8,8.5,6,16.8,9.5,25.1
			c3,7,6,13.8,11,19.7c8.9,10.6,23.7,13,33,1.4c4.7-5.9,7.1-13.4,9.3-20.5c2.6-8.4,4.5-17,5.8-25.6c1-6.9,1.6-13.8,1.9-20.7
			c1.5,4,3,7.9,4.6,11.8c3.1,7.7,6.3,15.3,9.7,22.9c2.6,5.8,5.4,12,11.5,14.8c13,5.9,24.6-7.4,30.3-17.4
			c7.1-12.4,10.5-26.4,12.1-40.5c0.5-4.7,0.8-9.4,0.9-14.1c9.1,21.1,22.2,40.8,39.1,55.5c5.8,5.1,13,9.1,20.9,7.1
			c6.7-1.6,11.5-7.1,14.5-13c3.8-7.5,5.6-15.9,7.4-24.1c2.1-9.5,3.7-19.2,4.7-28.9c1.2-10.7,1.7-21.4,1.5-32.1
			c2.1,4.5,4.2,8.9,6.6,13.2c4.1,7.6,8.6,15,13.5,22.1c4.5,6.5,9.1,13.6,14.8,19.1c5.1,4.9,12,8.6,19.2,6c6.6-2.4,9.6-9.2,11.6-15.4
			c5.4-16.4,8-33.9,7.8-51.1c0-4.6-0.3-9.2-0.7-13.8c3.3,6.7,6.6,13.5,9.9,20.2C1586.9,1442,1595.5,1437,1592.7,1431.2z"/>
		<path class="st8" d="M1590,1596.8c-14.4-17.8-23.4-39.4-26.3-61.9c-0.2-4.7-0.5-9.4-1-14c-0.6-6.3-10.1-6.6-10,0
			c0.1,5,0.4,10,1.1,14.9c0.5,12.4,0,24.7-1.5,37c-1,8.2-2.6,16.3-4.5,24.3c-1,4-3,19.9-9,19.5c-3.4-0.3-6.4-5.7-7.9-8
			c-2.1-3.2-4.1-6.5-6-9.9c-4-6.9-7.7-14-11-21.3c-6.9-15.2-12.1-31.2-15.8-47.6c-1.5-6.3-11.1-3.6-9.6,2.7
			c7.6,31.1,9.3,65.5,1.6,96.8c-1.6,6.6-4.2,13.7-9.9,17.9c-6,4.4-12.8,4.3-18-1.2c-5.2-5.4-9-12.4-13-18.7
			c-4.2-6.7-8.2-13.5-12-20.4c-8.7-15.8-16.3-32.2-22.9-49.1c-2.3-5.9-11.7-3.6-9.6,2.7c6.2,19.1,9.4,39,9.3,59.2
			c-0.1,8.4,0.9,45.2-15,42.2c-7.5-1.4-14.5-9.9-19.1-15.4c-5.2-6.3-9.4-13.4-12.9-20.7c-7.2-15-11.6-31.2-15.9-47.2
			c-1.4-5.3-10.1-4.4-9.8,1.3c1,17.3,1,34.6,0,51.8c-0.5,8.8-1.3,17.6-2.3,26.3c-0.8,7-1.6,14-4.3,20.5c-1.9,4.4-4.8,10.1-9.6,11.9
			c-6.1,2.3-10.4-3.9-12.9-8.5c-7.6-13.9-13.4-29.1-18.3-44.1c-5.7-17.6-9.8-35.6-12.3-53.9c-0.8-5.6-10.2-4.3-9.8,1.3
			c1.3,19.9,1.3,39.9-0.1,59.9c-0.7,9.7-1.6,19.5-3,29.1c-1.1,7.5-2.5,16.7-8.7,21.9c-6.3,5.3-13.3,4.1-17.3-2.9
			c-4.4-7.6-7.3-16.2-10.3-24.4c-6.5-17.8-11.4-36.2-14.8-54.9c-1-5.7-9.8-4.2-9.8,1.3c-0.4,33.5-13.7,65.9-36.9,90.1
			c-4.5,4.6,2.6,11.7,7.1,7.1c18.1-18.8,30.7-42.3,36.4-67.5c1.9,7.2,4.1,14.4,6.6,21.5c2.7,7.9,5.8,15.7,9.2,23.4
			c2.7,6.2,5.5,12.9,11.3,16.8c11.5,7.7,26.1-0.3,31.8-11.3c3.4-6.6,4.6-13.9,5.6-21.2c1.2-8.9,2.1-17.9,2.8-26.9
			c0.3-4.3,0.6-8.6,0.7-12.9c0.7,2.4,1.5,4.8,2.2,7.2c2.9,8.7,6.1,17.4,9.7,25.8c3.4,7.9,6.6,16.4,11.5,23.5
			c8.1,11.8,22.5,13.6,31.9,2.3c10.2-12.4,11-29.5,12.4-44.7c1-10.9,1.6-21.7,1.8-32.6c6.3,17,14.8,33.1,28.2,45.5
			c5.3,4.9,11.7,10.2,19.1,10.8c6.6,0.6,12.4-2.7,16.3-8c3.7-5.2,5.5-11.6,6.4-17.9c1.3-9.1,2.1-18.2,2.1-27.3
			c0-5.6-0.2-11.2-0.7-16.8c1.4,2.8,2.9,5.6,4.4,8.4c4.5,8.3,9.3,16.4,14.3,24.3c4.3,6.8,8.6,14.7,14.7,20.1
			c12.6,11.2,30.2,4.2,37.8-9.2c4.1-7.3,5.8-15.6,7.1-23.8c1.5-9.1,2.5-18.2,2.9-27.4c0.2-4.1,0.2-8.3,0.2-12.4
			c5.3,11.9,11.6,23.3,18.9,33.8c3.3,4.8,7.8,9.8,13.9,10.7c6,0.9,11.2-2.7,14-7.9c3.3-6.3,4.8-13.8,6.4-20.6
			c1.8-7.5,3.1-15,4.1-22.6c0.3-1.9,0.5-3.9,0.7-5.8c5,12.3,11.9,23.9,20.4,34.4C1586.9,1608.8,1594,1601.7,1590,1596.8z"/>
		<path class="st8" d="M1249.5,1785.6c-11.5-15.6-23.9-32.6-26.6-52.1c-0.1-2.9-0.3-5.8-0.6-8.8c-0.6-6.3-9.9-6.6-10,0
			c-0.1,3.3,0.2,6.5,0.6,9.7c0.6,21.8-4,43.3-13.8,63c-2.9,5.7,5.8,10.8,8.6,5c6.7-13.4,11.2-27.6,13.5-42.2
			c5.4,10.8,12.5,20.9,19.6,30.5C1244.7,1795.8,1253.3,1790.8,1249.5,1785.6z"/>
		<path class="st8" d="M1356.1,1754.2l-29.7-49.2c-2.6-4.2-9.3-2.5-9.3,2.5c-0.2,21.2-3,42.2-8.3,62.8c-1.6,6.2,8,8.9,9.6,2.7
			c4.1-15.9,6.8-32.2,8-48.6c7,11.6,14.1,23.3,21.1,34.9C1350.7,1764.8,1359.4,1759.7,1356.1,1754.2z"/>
		<path class="st8" d="M1591,1699.2c-17.4-14.9-27.4-36.6-27.2-59.6c0.1-6.5-9.8-6.4-10,0c-0.5,13.4-1,26.8-1.5,40.2
			c-0.3,7.9,1.2,22.4-6.3,27.8c-8.5,6.1-22.7-5.6-28.8-11c-8.3-7.4-15-16.6-19.3-26.9c-2.2-5.3-9.1-4.4-9.8,1.3
			c-1.5,12-3.8,23.9-7.1,35.5c-2.4,8.6-5.6,20.9-16.8,20.2c-9.5-0.5-17.5-8.1-23.2-15.1c-7.1-8.8-12.2-19-15.5-29.7
			c-1.6-5.4-9.7-4.4-9.8,1.3c-0.5,20.3-2.9,40.3-7,60.2c-1.3,6.3,8.3,9,9.6,2.7c2.9-13.7,4.9-27.5,6.1-41.3
			c3,5.4,6.5,10.5,10.5,15.3c7.4,8.7,18.5,17.1,30.5,16.8c12.5-0.4,19.6-10.2,23.2-21.1c3.1-9.4,5.4-19.1,7.1-29
			c4.3,6.7,9.4,12.7,15.5,18c9.3,8,23.5,18.1,36.3,13.3c11.3-4.2,13.7-17.4,14.2-28c0.2-3.9,0.4-7.8,0.5-11.7
			c5.1,10.6,12.4,20.3,21.5,28.1C1588.8,1710.5,1595.9,1703.4,1591,1699.2z"/>
		<path class="st8" d="M1582.3,1739.8c-5.1-5.8-8.5-13-9.4-20.7c-0.6-5.2-8.4-7.3-9.8-1.3c-2.4,9.9-4.8,19.9-7.2,29.8
			c-1.5,6.3,8.1,8.9,9.6,2.7c1-4.3,2.1-8.6,3.1-12.9c1.8,3.3,4,6.5,6.6,9.5C1579.5,1751.7,1586.5,1744.6,1582.3,1739.8z"/>
		<path class="st8" d="M1119.4,1498.7c-3.3-16.3-6.5-32.6-9.8-48.9c-1-4.9-8.5-4.6-9.6,0c-2.8,11.4-7,22.2-12.6,32.5
			c-3.1,5.7,5.6,10.7,8.6,5c2.9-5.3,5.4-10.8,7.6-16.4c2,10.1,4.1,20.2,6.1,30.4C1111,1507.7,1120.7,1505,1119.4,1498.7z"/>
	</g>
	<g>
		<path class="st13" d="M650.1,1926.6c-23.8-14.6-48.5-33.7-53.1-61.2c-4.7-28.4,15.1-56.3,40.3-70.3s54.7-17.1,83.4-19.9
			c-53.8-47.7-107.5-95.3-161.3-143c-32.5-28.8-67.4-62.5-69.1-105.9c-1.7-43.3,55.7-83.9,85.7-52.5c-21.4-53.2-67-92-103.9-135.9
			c-25.2-30-47.2-66.9-52.7-104.6c-4.1-28.3,21-52.2,49.1-46.8c81.5,15.8,157.3,61.2,208.8,126.6c29.2-14.2,20.5-59.8,40.3-85.5
			c16.4-21.3,49.6-22.9,73.5-10.6c23.9,12.3,40.4,35.1,55.1,57.6c55.9,85.8,98.7,180,126.5,278.6c25.2-31.5,57.8-66.3,97.9-61.5
			c45.6,5.5,67.9,58.1,76.3,103.3c19,101.7,30.8,338.5-70,407.4C970.8,2074.9,744,1984.1,650.1,1926.6z"/>
		<path class="st12" d="M1091.6,1581.1c-5.4,37.6-11.6,75.1-18.6,112.4c-13.9-13.5-27.8-27.1-41.7-40.6c-4.6-4.5-11.7,2.6-7.1,7.1
			c15.2,14.8,30.4,29.6,45.6,44.4c0.3,0.3,0.6,0.6,1,0.8c-8.6,44.9-18.3,89.6-29.1,134c-5.2,21.2-10.6,42.3-16.3,63.3
			c-55.3-86.2-113.6-170.5-174.8-252.6c-4.9-6.6-9.9-13.2-14.9-19.8c1.6-5.6,1.2-12.5,1.5-17.3c0.8-10.3,1.4-20.5,1.9-30.8
			c0.2-4.2,0.4-8.4,0.5-12.6c25.8-5,50.8-13.6,74.3-25.4c5.8-2.9,0.7-11.5-5-8.6c-21.9,11-45,18.9-69,23.8
			c0.9-34.5,0-69.1-2.5-103.6c-3.5-47-10.1-93.7-19.8-139.8c-1.3-6.3-11-3.6-9.6,2.7c9.8,46.8,16.4,94.3,19.7,141.9
			c-0.3-0.2-0.6-0.5-0.9-0.7c-17.9-10.6-33.1-24.9-44.7-42.2c-3.6-5.3-12.2-0.3-8.6,5c12.5,18.7,28.9,34.3,48.3,45.7
			c2.6,1.5,5.1,0.5,6.4-1.4c1.9,29.9,2.5,60,1.8,90c-0.4,19.6-1.4,39.2-3,58.8c-0.1,0.7-0.1,1.7-0.1,2.9
			c-49.3-64.9-100.5-128.4-153.4-190.4c0.9-0.8,1.4-2,1.2-3.7c-2.9-26.4-8.4-52.3-16.7-77.5c-2-6.1-11.7-3.5-9.6,2.7
			c7.2,21.9,12.4,44.3,15.4,67.2c-11.8-13.7-23.6-27.3-35.5-40.8c-43.8-49.7-88.7-98.3-134.7-145.9c-4.5-4.6-11.5,2.4-7.1,7.1
			c33.4,34.5,66.1,69.6,98.3,105.2c-16.8-1.7-33.5-3.5-50.3-5.2c-6.4-0.7-6.3,9.3,0,10c18.8,1.9,37.5,3.9,56.3,5.8
			c1.2,0.1,2.2-0.1,3-0.7c43.7,48.6,86.2,98.2,127.6,148.7c34.6,42.3,68.4,85.2,101.4,128.7c-3.4,0.3-9.2-1.7-11.7-2.2
			c-9.4-1.7-18.8-3.5-28.2-5.5c-34.2-7.2-68.1-16.1-101.4-26.8c-2.9-19.5-9.1-38.1-18.7-55.4c-3.1-5.6-11.8-0.6-8.6,5
			c8.1,14.7,13.8,30.5,16.7,47c-40.6-13.5-80.3-29.6-118.8-48.2c-5.8-2.8-10.9,5.8-5,8.6c40.7,19.6,82.6,36.5,125.5,50.5
			c1,4.1,6.3,5.1,8.7,2.8c14.2,4.5,28.4,8.7,42.8,12.6c-11.1,19.3-27.3,34.7-47,44.9c-5.7,3-0.7,11.6,5,8.6
			c21.2-11,38.9-28,50.7-48.8c0.4-0.8,0.6-1.5,0.7-2.3c14,3.6,28,7,42.2,10c9.7,2.1,19.4,4,29.1,5.8c7.1,1.3,17.3,4.9,24.4,1.6
			c35.6,47.3,70.3,95.3,104,144c27.9,40.4,55.2,81.3,81.7,122.7c-72.7-12.5-145.5-25.1-218.2-37.6c-0.1-0.3-0.3-0.7-0.5-1.1
			c-13.6-24.7-25.6-50.3-35.7-76.6c-2.3-5.9-12-3.4-9.6,2.7c9.6,25,20.7,49.3,33.4,72.8l-33.9-5.8l-78.5-13.5
			c-6.3-1.1-9,8.5-2.7,9.6l174.5,30.1c-16.4,21.9-29.1,46.1-37.9,72c-2.1,6.1,7.6,8.7,9.6,2.7c8.8-25.8,21.8-49.9,38.3-71.5
			c0.3-0.4,0.6-0.8,0.7-1.3l93.4,16.1c24.7,4.3,49.4,8.5,74.1,12.8c6.7,10.6,13.5,21.2,20.1,31.8c3.4,5.4,12.1,0.4,8.6-5
			c-6.1-9.7-12.2-19.4-18.4-29.1c0.1-0.1,0.1-0.3,0.2-0.4c23.1-84.5,42.1-170.1,56.9-256.5c4.2-24.3,8-48.7,11.5-73.1
			C1102.2,1577.5,1092.5,1574.7,1091.6,1581.1z"/>
	</g>
	<g>
		<path class="st14" d="M1696.8,1687.8c-1.3,7.7-4.3,15.1-8.9,21.4c-10.5,14.4-29.2,22.4-46.8,20.2c-1.3,13.2-10.4,25.2-22.6,30.2
			c-12.3,5-27.2,2.6-37.3-6c-8.5,10.9-26.5,9.3-37,0.3c-7.6-6.5-12.1-15.5-15.5-25c-140.6,32.4-282,61.2-423.6,95
			c-42.1,10-106.3,29.2-146.1,41.4c41.4,56.8,184,227.8,396.7,226.4c162.3-1,328.6-60.5,418.1-186.1
			c57.4-80.5,82.8-176.3,106.4-270.4C1819.2,1654.4,1758.1,1671.8,1696.8,1687.8z"/>
		<path class="st9" d="M1880.1,1635.1c-23.6,94.1-49,189.9-106.4,270.4c-89.5,125.6-255.7,185.1-418.1,186.1
			c-212.7,1.4-355.3-169.7-396.7-226.4c-21.4,6.5-35.7,11.1-35.7,11.1s161.8,278.7,429.5,276.9c170.4-1.2,344.9-68.5,438.8-210.7
			c61.9-93.8,88.4-205.9,113.8-315.4C1896.9,1629.7,1888.5,1632.4,1880.1,1635.1z"/>
		<path class="st4" d="M1310.6,1952.3c-1.7-3.3-5.1-3-7.4-1.1c-2,0-3.9,1-4.4,3.6c-2.2,10.5-2.3,21.2,0,31.7c1.7,8,4.7,21,13.9,23.3
			c2.4,0.6,5.7-0.8,6.2-3.5C1321.8,1987.7,1319.1,1969.2,1310.6,1952.3z"/>
		<path class="st4" d="M1244.7,1854.2c-1.6-7.9-5.1-20.8-15.8-18.2c-1.6,0.4-3.1,1.9-3.5,3.5c-0.2,0.7-0.3,1.4-0.4,2.1
			c-0.2,0.5-0.3,1-0.3,1.6c0,0.2,0,0.4,0,0.6c-0.7,4.8-0.8,9.6-0.2,14.3c0.5,11.6,3,22.8,11.2,31.8c2.5,2.7,7.5,1.4,8.4-2.2
			C1246.5,1876.7,1246.9,1865.4,1244.7,1854.2z"/>
		<path class="st4" d="M1149.2,1934.1c-0.1-5-1-10-2.4-14.9c-2.9-9.8-8.4-18.7-15.9-26.7c-2.9-3.1-8.3-0.3-8.5,2.9
			c-0.6,8.6,0,17.1,2,25.5c-0.1,6.7,1.1,13.4,3.9,19.7c1.7,3.9,3.7,8.7,8.4,10.7c4.5,2,9.5,0.2,11.1-3.8
			C1149.5,1943.6,1149.3,1938.4,1149.2,1934.1z"/>
		<path class="st4" d="M1356.8,1837c-2-2.2-6.6-1.9-7.9,1c-2.9,6.8-4.6,14-4.3,21.4c0.2,5.4,1.2,12.3,3.9,17.7
			c1.4,4.4,3.4,8.8,5.9,12.9c1.9,3.1,6.8,3.3,8.6,0C1372.4,1873,1369.8,1851.5,1356.8,1837z"/>
		<path class="st4" d="M1436.8,1945.9c-2.4-3-7.5-1.2-8.4,2.2c-2.5,9.7-2.6,19.5-0.5,29c0.2,5.8,1,11.5,2.9,16.7
			c2.8,8,12.2,8.4,15.5,0.5C1452.8,1978.3,1447.2,1958.8,1436.8,1945.9z"/>
		<path class="st4" d="M1438.7,1806c-2.4-3.2-8-3.4-9.1,1.2c-0.3,1.4-0.6,2.8-0.8,4.2c-1.1,0.8-1.8,2-1.9,3.7
			c-1.1,14.5,2.3,28.8,9.6,41.3c2.3,4,7.7,2.7,9.1-1.2C1451.8,1838.9,1449.2,1820,1438.7,1806z"/>
		<path class="st4" d="M1539.6,1930.2c-0.1-0.1-0.1-0.3-0.2-0.4c-1-2.1-2.2-4.2-3.4-6.2c-2.1-3.5-8.1-3.1-9.1,1.2
			c-1.3,5.6-1.8,11.3-1.5,16.9c0.2,8.2,1.2,16.4,3.3,24.3c1.9,7.1,5.8,13.7,14.1,12.4c1.5-0.2,3.3-2,3.5-3.5
			C1548.4,1959.4,1546.2,1944.1,1539.6,1930.2z"/>
		<path class="st4" d="M1557.3,1845.4c-1.9-6.5-5-16-9.8-21c-5-5.2-10.8-0.7-11.6,5.1c-0.2,1.5-0.4,3-0.5,4.5
			c-0.2,0.4-0.3,0.9-0.4,1.4c-1.1,8.5-0.5,17.1,1.8,25.3c1.7,5.9,4.5,15.7,10.8,18.4c7.3,3.2,10.5-4.8,11.5-10.4
			C1560.4,1860.9,1559.6,1853,1557.3,1845.4z"/>
		<path class="st4" d="M1655.7,1924c-1.4-10.5-4.9-20.4-10.4-29.4c-2.8-4.6-8.7-2.1-9.3,2.5c-0.3,2-0.5,4.1-0.6,6.1
			c-0.5,0.7-0.9,1.7-0.9,2.8c-0.3,11.2,0.2,22.6,2.2,33.6c1.2,7,8.5,16.3,15.8,9.3C1658.5,1943.4,1656.7,1931.1,1655.7,1924z"/>
		<path class="st4" d="M1651.5,1811.8c-0.6-11.3-3.7-22-8.7-32.1c-1.3-2.7-4.7-3-7-1.6c-2.6-0.2-5.5,1.4-5.9,4.8
			c-1.5,13.5-0.1,26.9,3.7,39.7c0.3,1.2,0.6,2.3,1,3.5c0.1,0.4,0.3,0.8,0.5,1.1c0.8,2.3,1.7,4.7,2.7,7c0.9,2.2,3.7,2.6,5.6,2.3
			C1653.1,1834.8,1651.9,1818.7,1651.5,1811.8z"/>
		<path class="st4" d="M1737.2,1821.6c-0.8-6.5-2.1-12.9-4.3-19.1c-1.5-4.2-3.2-11.3-8.9-11.3c-5,0-6.7,6.3-7.7,10.4
			c-6.1,7.2-3.7,18.2-2.3,26.8c0.2,1.5,0.5,3,0.8,4.4c0.5,6.1,1.8,12.2,4.8,17.2c1.3,3.7,2.8,7.4,4.5,11.1c1.9,4.2,7.9,2.5,9.1-1.2
			C1737.3,1847.6,1738.8,1834.5,1737.2,1821.6z"/>
		<path class="st4" d="M1776.2,1727c-1.1-6.4-3.4-26.8-14.4-22.1c-4.7,2-5.6,8.2-6.2,12.6c-0.9,6.1-0.8,12.1,0,18.2
			c0.8,5.9,2.2,11.6,4,17.2c1.3,4.1,2.7,12.4,7.1,14.3c1.1,0.5,2.1,0.6,3,0.6c2.5,1,6.2-0.7,6.6-3.4
			C1778.2,1752,1778.3,1739.5,1776.2,1727z"/>
	</g>
	<g>
		<path class="st14" d="M884,1893.3c-1.1-8.6-2.4-17.2-4.4-25.7c-3.7-16-9.8-31.7-20-44.8c-9.1-11.7-21.3-21.2-35.5-25.7
			c-16.3-5.2-32.9-1.7-48.4,4.3c-20.6,8-40.8,17.1-61.2,25.6c-18.2,7.7-36.5,15.4-54.7,23c2.7-19.7,5.4-39.4,8-59.1
			c2.8-20.3,6.1-40.6,8-61.1c3-31.9-0.4-70.5-32.1-87.4c-26.4-14-60.6-7.2-83.7,10.4c-28.1,21.3-39,57.8-41.8,91.5
			c-2.3,27.8-0.5,56.4,4.1,84.3c-12.3-16.1-26.5-30.7-44.6-40.2c-26-13.7-59.5-16.2-83.2,3.7c-18.9,15.9-25.3,42.5-22.8,66.3
			c3,27.6,16.9,50.8,38,68.6c25.5,21.6,57.1,33.9,88.2,45.2c-12.1,21.5-34.6,34.2-51.6,51.6c-18.5,18.8-32.3,45.5-19.2,71.3
			c5.8,11.5,15.7,20.5,25.6,28.3c10.4,8.3,21.3,16.2,33.2,22.1c11.3,5.7,24.3,10.3,37.2,9.2c12.7-1.1,23.2-7.5,30.6-17.7
			c4.6-6.3,8-13.6,11.5-20.6l13.2-25.6c6.3-12.2,12.5-24.4,18.8-36.6c3.7,26.4,11.9,52.1,24.4,75.7c6.4,12.2,14.5,27.3,30.6,26.1
			c8.2-0.6,15.9-4.8,23.4-7.9c8.5-3.6,17.1-7.3,25.6-10.9c16.3-7,32.7-13.7,48.9-20.9c12.5-5.5,25-12.8,31.4-25.4
			c12.4-24.1-0.8-52.8-17.4-71.2c-19.8-21.8-48.7-33.7-66.7-57c36.5-2.9,73.1-5.8,109.6-8.8c9.9-0.8,19.8-1.6,29.7-2.4
			c8.1-0.6,16.4-0.9,24.4-2.7c15.6-3.5,24.5-14.8,25-30.7C886.4,1909.9,885,1901.5,884,1893.3z"/>
		<path class="st11" d="M719.7,1643.9c-0.6-4.3-5.2-3.5-6.5,0.2c-28.6,77.1-64,149.9-105.2,216.2c-11.6,18.8-23.8,37-36.3,54.6
			c-1,1.4-1.3,3-1,4.3c-1.9,0.1-3.9,2.1-3.5,5.5c0.3,3.3,0.3,7.6,1.1,10.6c0.6,2.3,2.2,4.2,3.5,5.8c3,3.7,6.7,6.3,10.6,7.8
			c7.6,2.8,16,1.8,23.8-2c17.7-8.5,30.5-31.1,41.7-51.4c26.8-48.6,53.7-99.4,66.6-157.5C721.4,1706.7,723.8,1674.4,719.7,1643.9z"/>
		<path class="st11" d="M630.1,1767.7c-6.6-9.4-20.4-5.9-25.4,2.7c-6.9,6.8-3.8,21.4,7.4,24c6.9,1.6,13.7-1.9,16.9-8.1
			C631.7,1781.2,633.6,1772.8,630.1,1767.7z"/>
		<path class="st11" d="M661.2,1712.8c-4.3-5.5-11.9-7.8-18.3-4.7c-5,2.4-8.6,7.9-8.4,13.5c-1.2,6.9,2.5,14.7,10.8,16.9
			C659.9,1742.5,670.2,1724.1,661.2,1712.8z"/>
		<path class="st11" d="M691.3,1671.8c-0.2-4-2-7.4-4.6-9.7c-0.1-0.2-0.2-0.4-0.3-0.6c-0.8-1.8-3.1-2.7-5.1-2.4
			c-0.9-0.3-1.7-0.4-2.7-0.5c-1.3-1.8-3.7-2.7-6.1-1c-1.9,1.4-3.4,3.1-4.6,5c-4.5,4.9-4.4,13-0.2,17.8c0.5,0.7,1.1,1.4,1.7,2.1
			C678.2,1691,691.8,1683.3,691.3,1671.8z"/>
		<path class="st11" d="M719.9,1818.5c-2.1-3.4-6-5.2-9.8-4.9c-0.8-0.6-1.8-1-3.2-0.9c-1.1,0.1-2.1,0.2-3.2,0.2
			c-2.2,0.2-4.2,1.4-4.8,3.7c-1.7,6-2.7,12.9,2,17.8c4.4,4.6,11.2,4.2,15.6,0C720.8,1830.5,723.1,1823.6,719.9,1818.5z"/>
		<path class="st11" d="M744,1753.6c-1.7-2.3-4-4.5-6.7-5.2c-0.9-0.2-1.8-0.2-2.6-0.1c-2.4-1.1-4.8,0.1-6.3,2.1
			c-4.1,5.5-6,13.1-1.6,18.9c3.5,4.8,10.1,6.4,15,3.2c2.4-1.2,4.4-3.6,5.3-6.5C748.3,1761.6,747.2,1756.6,744,1753.6z"/>
		<path class="st11" d="M750.4,1688.3c-2.7-4.3-7.9-6-12.4-3.2c-0.3,0.2-0.5,0.4-0.8,0.6c-0.7,0.1-1.4,0.2-2.1,0.4
			c-1.6,0.5-3.1,1.8-3.5,3.5c-1.1,4.9-1.8,10.4,1.2,14.9c2.5,3.9,7.2,6.2,11.8,4.9C753.2,1707,754.6,1694.9,750.4,1688.3z"/>
		<path class="st15" d="M545.8,1924.5c-48.7-13.6-92.7-43-123.5-83.2c-3.9-5-12.6-0.1-8.6,5c32.5,42.3,78.1,73.4,129.5,87.8
			C549.3,1935.8,552,1926.2,545.8,1924.5z"/>
		<path class="st15" d="M540,1889.8c-26.3-33.7-58.7-62.3-95.2-84.5c-5.5-3.3-10.5,5.3-5,8.6c35.8,21.8,67.4,49.9,93.2,82.9
			C536.9,1902,543.9,1894.9,540,1889.8z"/>
		<path class="st15" d="M579.4,1681c1.7-6.2-7.9-8.9-9.6-2.7c-4.3,15.3-10.4,29.8-13.7,45.5c-3.2,15.3-4.8,30.9-5,46.5
			c-0.2,31.4,5.7,62.8,17.7,91.8c2.4,5.9,12.1,3.3,9.6-2.7c-11.7-28.2-17.6-58.6-17.4-89.1c0.1-15.3,1.7-30.6,5-45.6
			C569.4,1709.8,575.3,1695.8,579.4,1681z"/>
		<path class="st15" d="M610.5,1681.4c-0.2,20.7-0.4,41.3-0.6,62c-0.1,6.4,9.9,6.4,10,0c0.2-20.7,0.4-41.3,0.6-62
			C620.5,1675,610.5,1675,610.5,1681.4z"/>
		<path class="st15" d="M613.1,1810.1c-1.2-6.3-10.8-3.6-9.6,2.7c0.9,4.6,0.3,9.1-1.3,13.5c-2.2,6.1,7.5,8.7,9.6,2.7
			C614,1822.8,614.3,1816.5,613.1,1810.1z"/>
		<path class="st15" d="M834.3,1886c-49.8,21.1-105.8,26.2-158.6,14.7c-6.3-1.4-9,8.3-2.7,9.6c55.6,12.2,113.9,6.6,166.3-15.7
			C845.3,1892.2,840.2,1883.5,834.3,1886z"/>
		<path class="st15" d="M820.4,1854.9c-44.2-5.1-89.3,0.9-130.6,17.3c-5.9,2.3-3.3,12,2.7,9.6c40.6-16.1,84.5-21.9,128-16.9
			C826.7,1865.6,826.7,1855.6,820.4,1854.9z"/>
		<path class="st15" d="M663,2094.4c-0.7-3.6-4-4.3-6.6-3.1c-0.3-0.9-1.1-1.8-1.5-2.6c-1.3-2.3-2.7-4.6-4-6.9
			c-2.6-4.7-5-9.4-7.4-14.2c-4.9-10-9.3-20.2-13.1-30.7c-7.4-20.3-12.7-41.4-15.9-62.7c-1-6.3-10.6-3.6-9.6,2.7
			c4.1,27.2,11.7,53.7,22.4,79c5.3,12.5,11.3,24.6,18.1,36.3c2.5,4.3,4.7,9,10.2,9.9C660.5,2102.8,663.9,2099.3,663,2094.4z"/>
		<path class="st15" d="M711.8,2073.9c-12-42.5-33.8-81.7-63.6-114.3c-4.3-4.8-11.4,2.3-7.1,7.1c28.6,31.3,49.5,69.1,61,109.9
			C703.9,2082.8,713.5,2080.1,711.8,2073.9z"/>
		<path class="st15" d="M565,1955.9c-41.2,34.1-76.9,74.6-105.7,119.7c-3.5,5.4,5.2,10.5,8.6,5c28.4-44.4,63.5-84.1,104.1-117.6
			C577,1958.9,569.9,1951.9,565,1955.9z"/>
		<path class="st15" d="M589.1,1971.9c-16,44.7-41.3,85.7-74.2,120c-4.4,4.7,2.6,11.7,7.1,7.1c34-35.6,60.2-78.1,76.7-124.5
			C600.9,1968.5,591.3,1965.9,589.1,1971.9z"/>
	</g>
	<g>
		<g>
			<g>
				<path class="st16" d="M2123.7,1574.4c-1-8.5-2.2-16.9-3.5-25.4c-1-6.5-1.7-14.3-8.2-18c-5.3-3-12-1.4-16.5,2.3
					c-5.3,4.4-6.8,11.3-7.5,17.8c-3.6,34.9-4.2,70.4-4.6,105.4c-0.5,37.9,0.4,75.8,2.5,113.7c-3.4,1.7-4.9,6.7-0.6,8.6
					c0.7,0.3,1.4,0.6,2.1,0.9c1.2,1.5,3.2,2.1,5,1.8c8,2.6,16.3,3.7,24.9,3.2c2-0.1,4.5-1.4,4.8-3.7
					C2131.4,1712.6,2132.1,1643.1,2123.7,1574.4z"/>
				<path class="st11" d="M2187.8,1731c-7.2-19.5-19.8-36.7-35.1-50.6c-31.9-29-80.5-49.8-123.2-34c-40.3,14.9-69.1,57.9-64.3,101.1
					c0.3,2.8,2.4,4.3,4.6,4.7c10.4,36.7,46.2,61.6,82.7,68.5c25.3,4.8,51.3,2.6,76.4-2.5c11.6-2.4,23.5-4.9,34.7-8.9
					c10.1-3.6,18.9-9.3,24.1-18.8C2197.5,1772.6,2194.6,1749.4,2187.8,1731z"/>
				<path class="st14" d="M2320.9,1653.4c-46-43.5-117-35.1-170.1-10.8c-28,12.8-53.1,32.9-65.1,62c-11.2,27.5-10,57.7-6.9,86.9
					c-2.9,0.6-5.3,3.1-4,6.7c9.2,25.8,19.1,52.8,38.6,72.7c20.9,21.2,51,28.9,80.1,26.5c31-2.5,61.2-14.6,89.2-27.7
					c12.7-5.9,25-13,35.3-22.5c11-10.1,18.3-22.8,23.3-36.8C2359.1,1760.8,2362.4,1692.7,2320.9,1653.4z"/>
				<path class="st17" d="M2350.8,1776.7c-5.5-8-16.5-7.4-25.1-7.7c-25.8-0.9-51.6-1.8-77.4-2.7c-49.8-1.7-99.8-2.6-149.5-6.6
					c-24.4-2-48.8-4.9-72.8-9.4c-12.4-2.3-24.7-5.1-36.9-8.3c-8.7-2.3-18.8-6.6-27.9-3.8c-10.7,3.3-11.3,14.2-10.1,23.6
					c0.6,4.2,1.2,8.5,1.8,12.7c0.3,43.3,2.5,86.6,6.8,129.6c2.5,25.3,5.7,50.5,9.5,75.6c3.1,20.3,4.5,45.2,21.3,59.5
					c15.9,13.6,38.6,15.8,58.5,18.7c24.4,3.6,48.9,6.2,73.5,7.7c50.2,3.1,100.7,1.7,150.7-4.2c10.9-1.3,22.6-1.9,33.2-5
					c10.1-3,16.3-10,18.6-20.2c2.5-11.4,3.4-23.4,4.9-35c1.7-12.8,3.4-25.5,5-38.3c6.4-50.8,12.1-101.6,17.1-152.6
					c0.6-6.2,1.3-12.3,1.8-18.5C2354.1,1786.6,2353.9,1781.2,2350.8,1776.7z"/>
				<path class="st5" d="M2379.2,1760.6c-5.2-8.6-20-10.4-28.9-11.4c-4.2-0.5-8.4-0.7-12.6-0.8c-10.3-1.4-21-2.1-30.9-2.3
					c-71.3-2-142.9,3-213.9-2.7c-34.4-2.8-68.1-8.1-103-8.8c-14.3-0.3-30.7-0.5-43.7,3.1c-11.8,3.2-17,10-14.2,16.8
					c6.8,16.6,46.9,19.3,72.6,21.8c34.6,3.4,69.8,4.9,104.9,4.4c2.4,0,4.9-0.1,7.3-0.1c0.8,0.4,1.8,0.7,3.2,0.8
					c36.4,1.2,72.9,1.8,109.4,1.9c18.4,0,36.8-0.1,55.2-0.3c15-0.2,30-0.3,44.9-1.4c3.1-0.2,6.3-0.5,9.4-0.9c3.7,0.4,7.4,0.8,11.1,1
					c8.9,0.6,23.5,0.1,28.7-8.8c0.4-0.7,0.7-1.4,0.9-2.1C2381.3,1767.7,2381,1763.6,2379.2,1760.6z"/>
			</g>
			<path class="st13" d="M2350.9,1840c-102.6,5.5-205,3.6-307.4-3.3c-28.6-1.9-57.2-3.8-85.8-5.8c-0.5,0-1,0-1.5,0.1
				c-2.5,0-5.2,1.6-5.3,4.8c-0.1,2.3-0.3,4.7-0.4,7c-0.9,0.8-1.5,2-1.3,3.7c0.2,2.2,0.5,4.5,0.7,6.7c0,0.6,0,1.1,0.2,1.6
				c2,19,4.1,38.1,6.1,57.1l3.6,33.7c1.1,10.4,1.7,21,3.4,31.3c1.4,8.6,7.6,12.2,15.7,13.1c10.6,1.2,21.3,1.8,32,2.6
				c22.1,1.7,44.2,3,66.3,4c43.6,2,87.2,2.7,130.8,2.1c21.8-0.3,43.6-0.9,65.4-1.8c11.2-0.5,22.4-1,33.6-1.7
				c5-0.3,10.4-0.5,14.8-2.5c2.8-0.7,5.9,0,8.6-1.7c2.5-1.6,4-4.3,4.8-7.2c2.2-8.3,2.4-17.8,3.3-26.4c1.1-10.7,2-21.3,2.7-32
				c0.4-2,0.7-4,1.1-6c4.5-24.4,9-48.8,13.5-73.2C2356.3,1843.3,2354.4,1839.8,2350.9,1840z"/>
			<path class="st5" d="M2351.9,1875.9c-0.1-2.9-2.2-4.7-5-5c-0.4-0.1-0.9-0.1-1.3-0.1c-0.4-0.1-0.8-0.1-1.2-0.1c-0.1,0-0.1,0-0.2,0
				c-0.9,0-1.9,0-2.8,0.1c-99.9,3.2-199.6,2-299.4-2c-28.1-1.1-56.3-2.3-84.4-3.4c-0.5,0-1,0-1.5,0.1c-2.3,0-4.6,0.8-5.1,2.4
				c-2.1,0.6-3.5,2.4-3.7,4.8c-1.2,20.2,5.5,41.2,10.2,60.7c1.2,5,2.4,10,3.6,15c0.9,3.7,1.3,7.9,5,9.8c3.8,2,9.7,1.7,13.9,1.7
				c1.6,0,3.2,0,4.8-0.1c8.4,0.5,16.8,0.8,25.1,1.2c21.7,1,43.4,1.8,65.2,2.3c42.8,1.2,85.7,1.6,128.6,1.2
				c21.4-0.2,42.9-0.5,64.3-1.1c11-0.3,22.1-0.6,33.1-1c4.9-0.2,10.2-0.3,14.6-1.5c0.5-0.1,1.1-0.1,1.7-0.2c0.9,0.4,1.9,0.6,3,0.4
				l5.2-0.8c4.4,1.1,9.3-0.6,12.3-4.3c5.3-6.3,3.9-16.3,5.1-23.9C2346.1,1913.3,2352.8,1895.2,2351.9,1875.9z"/>
			<path class="st14" d="M2180.5,1900.4c-4.4-7.9-11.7-13.8-19.6-15.7c-0.5-0.4-1.1-0.8-1.9-1c-15.5-5-31.9,9.3-37.2,22.9
				c-5.6,14.2-0.8,31.2,11.3,40.6c11.9,9.1,29.4,8.7,40.9-0.9C2187.2,1935.2,2188.6,1914.9,2180.5,1900.4z"/>
		</g>
		<path class="st18" d="M2275.7,1653.4c-0.6-1.7-1.1-3.3-1.7-5c-0.8-2.5-3.5-4.4-6.2-3.5c-2.5,0.8-4.4,3.5-3.5,6.2
			c0.6,1.7,1.1,3.3,1.7,5c0.8,2.5,3.5,4.4,6.2,3.5C2274.6,1658.8,2276.6,1656.1,2275.7,1653.4z"/>
		<path class="st18" d="M2276.1,1687.1c-1.7-2-5.3-1.9-7.1,0c-1.9,2-1.8,4.8-0.1,6.9c0,0,0,0,0.1,0.1c0.3,0.5,0.3,0.4,0-0.2
			c0.1,0.1,0.2,0.4,0.2,0.6c0,0,0,0.1,0,0.1c0,0.1,0,0.3,0,0.4c-0.1,0.5-0.1,0.4,0.1-0.2c-1,2.4-0.8,5.5,1.8,6.8
			c2.2,1.1,5.7,0.8,6.8-1.8C2279.9,1695.4,2279.4,1690.8,2276.1,1687.1z"/>
		<path class="st18" d="M2216.6,1666.8c-0.3-1.2-1.2-2.4-2.3-3c-1.2-0.6-2.6-0.9-3.9-0.5c-0.5,0.2-1.1,0.4-1.6,0.7
			c-0.5,0.1-0.9,0.3-1.3,0.5c-1,0.6-2,1.8-2.3,3c-0.3,1.3-0.2,2.7,0.5,3.9c0.7,1.1,1.7,1.9,3,2.3c1.4,0.5,2.9,0.3,4.2-0.3
			c0.8-0.3,1.3-0.6,2-1.3c0.4-0.4,0.9-0.9,1.1-1.5c0.4-0.6,0.6-1.2,0.6-1.9C2216.8,1668.1,2216.8,1667.4,2216.6,1666.8z"/>
		<path class="st18" d="M2234.3,1642.4c-0.7-1.1-1.7-1.9-3-2.3c-0.8-0.3-1.7-0.6-2.5-0.8c-1.2-0.4-2.8-0.1-3.9,0.5
			c-1,0.6-2,1.8-2.3,3c-0.3,1.3-0.2,2.7,0.5,3.9c0.7,1.1,1.7,1.9,3,2.3c0.8,0.3,1.7,0.6,2.5,0.8c1.2,0.4,2.8,0.1,3.9-0.5
			c1-0.6,2-1.8,2.3-3C2235.1,1645,2235,1643.5,2234.3,1642.4z"/>
		<path class="st18" d="M2234.9,1705.9l-0.5-1.2c-0.4-0.8-1-1.3-1.8-1.8c-1.1-0.8-2.2-1.7-3.3-2.5c-1-0.7-2.7-0.8-3.9-0.5
			c-1.2,0.3-2.4,1.2-3,2.3c-0.6,1.2-0.9,2.6-0.5,3.9c0.2,0.4,0.3,0.8,0.5,1.2c0.4,0.8,1,1.3,1.8,1.8c1.1,0.8,2.2,1.7,3.3,2.5
			c1,0.7,2.7,0.8,3.9,0.5c1.2-0.3,2.4-1.2,3-2.3C2235,1708.6,2235.3,1707.2,2234.9,1705.9z"/>
		<path class="st18" d="M2154.3,1691.3c-2.6-1.4-5.2-0.5-6.8,1.8c-1.4,1.9-2.8,3.8-4.3,5.8c-1.6,2.1-0.4,5.7,1.8,6.8
			c2.6,1.4,5.2,0.5,6.8-1.8c1.4-1.9,2.8-3.8,4.3-5.8C2157.6,1696,2156.5,1692.5,2154.3,1691.3z"/>
		<path class="st18" d="M2175.3,1653.2c-1.4-2.2-4.5-3.3-6.8-1.8c-2,1.3-4.1,2.5-6.1,3.8c-2.2,1.4-3.3,4.5-1.8,6.8
			c1.4,2.2,4.5,3.3,6.8,1.8c2-1.3,4.1-2.5,6.1-3.8C2175.7,1658.7,2176.8,1655.5,2175.3,1653.2z"/>
		<path class="st18" d="M2321.2,1699.1c-1-2.5-1.9-4.9-2.9-7.4c-1-2.4-3.4-4.4-6.2-3.5c-2.3,0.8-4.5,3.5-3.5,6.2
			c1,2.5,1.9,4.9,2.9,7.4c1,2.4,3.4,4.4,6.2,3.5C2320,1704.5,2322.2,1701.7,2321.2,1699.1z"/>
		<path class="st18" d="M2190,1712.6c-0.6-1-1.8-2-3-2.3c-1.3-0.3-2.7-0.2-3.9,0.5c-1.2,0.8-1.8,1.7-2.3,3c-0.5,1.2-1,2.4-1.5,3.7
			c-0.5,1.1-0.1,2.9,0.5,3.9c0.6,1,1.8,2,3,2.3c1.3,0.3,2.7,0.2,3.9-0.5c1.2-0.8,1.8-1.7,2.3-3c0.5-1.2,1-2.4,1.5-3.7
			C2191,1715.3,2190.6,1713.6,2190,1712.6z"/>
		<path class="st18" d="M2108.5,1710.8c-2.8,0.1-4.9,2.2-5,5c0,0.1,0,0.1,0,0.2c0,0,0,0.1,0,0.1c0,0.1-0.1,0.3-0.1,0.5
			c0,0,0,0,0,0.1c-0.1,0.2-0.2,0.3-0.2,0.4c-0.1,0.1-0.1,0.2-0.2,0.3c0,0,0,0,0,0c-1.7,1.9-2.1,5.2,0,7.1c1.9,1.8,5.2,2.1,7.1,0
			c2.2-2.5,3.4-5.4,3.6-8.7C2113.6,1713.2,2111.1,1710.7,2108.5,1710.8z"/>
		<path class="st18" d="M2137.6,1665.3c-0.3-1.2-1.2-2.4-2.3-3c-1.2-0.6-2.6-0.9-3.9-0.5c-1.2,0.4-2.4,1.1-3,2.3l-0.7,1.5
			c-0.6,1.2-0.9,2.5-0.5,3.9c0.3,1.2,1.2,2.4,2.3,3c1.2,0.6,2.6,0.9,3.9,0.5c1.2-0.4,2.4-1.1,3-2.3c0.2-0.5,0.5-1,0.7-1.5
			C2137.7,1668,2138,1666.6,2137.6,1665.3z"/>
		<path class="st18" d="M2145.6,1726.9c-0.3-1.2-1.2-2.4-2.3-3c-1.2-0.6-2.6-0.9-3.9-0.5c-1.3,0.4-2.2,1.2-3,2.3
			c-0.5,0.7-1,1.5-1.5,2.2c-0.7,1-0.8,2.7-0.5,3.9c0.3,1.2,1.2,2.4,2.3,3c1.2,0.6,2.6,0.9,3.9,0.5c1.3-0.4,2.2-1.2,3-2.3
			c0.5-0.7,1-1.4,1.5-2.2C2145.8,1729.8,2145.9,1728.1,2145.6,1726.9z"/>
		<path class="st18" d="M2261.9,1723.6c-0.7-1.3-1.3-2.7-2-4c-1.2-2.3-4.7-3.2-6.8-1.8c-2.4,1.5-3.1,4.3-1.8,6.8
			c0.7,1.3,1.3,2.7,2,4c1.2,2.3,4.7,3.2,6.8,1.8C2262.5,1728.9,2263.2,1726.1,2261.9,1723.6z"/>
		<path class="st18" d="M2249.4,1661.2c-2.7,0.1-5,2.2-5,5v6c0,2.6,2.3,5.1,5,5c2.7-0.1,5-2.2,5-5v-6
			C2254.4,1663.6,2252.1,1661.1,2249.4,1661.2z"/>
		<path class="st18" d="M2311.8,1719.6c-1.2-2.1-2.5-4.1-3.7-6.2c-1.4-2.2-4.5-3.3-6.8-1.8c-2.2,1.4-3.2,4.4-1.8,6.8l3.7,6.2
			c1.4,2.2,4.5,3.3,6.8,1.8C2312.3,1725,2313.3,1722,2311.8,1719.6z"/>
		<path class="st8" d="M2002.8,1700.8c-2.3-1.2-5.6-0.7-6.8,1.8c-1.2,2.4-2.4,4.8-3.6,7.2c-1.2,2.3-0.7,5.5,1.8,6.8
			c2.3,1.2,5.6,0.7,6.8-1.8c1.2-2.4,2.4-4.8,3.6-7.2C2005.8,1705.3,2005.3,1702.1,2002.8,1700.8z"/>
		<path class="st8" d="M2032.3,1662.1c-2.3-1.2-5.6-0.7-6.8,1.8l-3.7,7.1c-1.2,2.3-0.7,5.5,1.8,6.8c2.3,1.2,5.6,0.7,6.8-1.8l3.7-7.1
			C2035.3,1666.6,2034.8,1663.4,2032.3,1662.1z"/>
		<path class="st8" d="M2049.5,1707.1c-2.5-1.5-5.3-0.4-6.8,1.8c-2.1,3-4.3,5.9-6.4,8.9c-1.6,2.2-0.4,5.6,1.8,6.8
			c2.5,1.5,5.3,0.4,6.8-1.8l6.4-8.9C2052.9,1711.7,2051.7,1708.4,2049.5,1707.1z"/>
		<path class="st8" d="M2086.2,1657.6c-2.3-1.2-5.6-0.7-6.8,1.8c-0.9,1.8-1.8,3.6-2.7,5.4c-1.2,2.3-0.7,5.5,1.8,6.8
			c2.3,1.2,5.6,0.7,6.8-1.8c0.9-1.8,1.8-3.6,2.7-5.4C2089.2,1662.1,2088.7,1658.9,2086.2,1657.6z"/>
		<path class="st8" d="M2054.6,1666.1c-2.7-0.6-5.3,0.8-6.2,3.5c-0.6,2.1-1.3,4.2-1.9,6.3c-0.8,2.5,0.9,5.6,3.5,6.2
			c2.7,0.6,5.3-0.8,6.2-3.5c0.6-2.1,1.3-4.2,1.9-6.3C2058.8,1669.8,2057.2,1666.7,2054.6,1666.1z"/>
		<path class="st8" d="M2074.1,1697.4c-0.3-1.2-1.2-2.4-2.3-3c-2.3-1.2-5.6-0.7-6.8,1.8c-0.6,1.2-1.2,2.4-1.8,3.6
			c-0.6,1.2-0.9,2.5-0.5,3.9c0.3,1.2,1.2,2.4,2.3,3c2.3,1.2,5.6,0.7,6.8-1.8c0.6-1.2,1.2-2.4,1.8-3.6
			C2074.2,1700,2074.4,1698.7,2074.1,1697.4z"/>
	</g>
</g>
</svg>
